# xmcd
#
# Track frame offsets: 
#        150
#        21198
#        37685
#        56487
#        77478
#        96981
#        114123
#        133644
#        151105
#        172596
#        194878
#        216418
#        234985
#        259667
#        279842
#        295125
#        312192
#
# Disc length: 4425 seconds
#
# Revision: 0
# Processed by: cddbd v1.5.1PL0 Copyright (c) Steve Scherf et al.
# Submitted via: ExactAudioCopy v0.95a3
#
DISCID=d8114711
DTITLE=Руки Вверх! - Русские Пряники
DYEAR=1900
DGENRE=Pop
TTITLE0=Ну Где Же Вы, Девчонки?
TTITLE1=Атаман
TTITLE2=Крошка Моя
TTITLE3=Назови Его Как Меня (Сынишка)
TTITLE4=Лучший Парень
TTITLE5=Ай-Яй-Яй
TTITLE6=Песенка Номер Два
TTITLE7=Киска-Любовь
TTITLE8=Я Не Отдам Тебя Никому
TTITLE9=Если Ты Разлюбила
TTITLE10=Без Любви
TTITLE11=Прости
TTITLE12=I Like
TTITLE13=Баю-Бай
TTITLE14=Алёшка
TTITLE15=Так Тебе И Надо
TTITLE16=Песенка №30
EXTD=
EXTT0=
EXTT1=
EXTT2=
EXTT3=
EXTT4=
EXTT5=
EXTT6=
EXTT7=
EXTT8=
EXTT9=
EXTT10=
EXTT11=
EXTT12=
EXTT13=
EXTT14=
EXTT15=
EXTT16=
PLAYORDER=
